<svg width="20" height="23" viewBox="0 0 20 23" fill="none" xmlns="http://www.w3.org/2000/svg">
<path d="M5.984 0.986009C5.438 0.995009 5 1.43901 5 1.98601C5 1.99101 5 1.99601 5 2.00001V1.99901V2.99901H3C1.355 2.99901 0 4.35401 0 5.99901V19.999C0 21.644 1.355 22.999 3 22.999H17C18.645 22.999 20 21.644 20 19.999V5.99901C20 4.35401 18.645 2.99901 17 2.99901H15V1.99901C15 1.99501 15 1.99001 15 1.98501C15 1.43301 14.552 0.985009 14 0.985009C13.995 0.985009 13.989 0.985009 13.984 0.985009H13.985C13.439 0.994009 13.001 1.43801 13.001 1.98501C13.001 1.99001 13.001 1.99501 13.001 1.99901V1.99801V2.99801H7.001V1.99801C7.001 1.99401 7.001 1.98901 7.001 1.98401C7.001 1.43201 6.553 0.984009 6.001 0.984009C5.996 0.984009 5.99 0.984009 5.985 0.984009H5.986L5.984 0.986009ZM3 5.00001H5V6.00001C5 6.00401 5 6.00901 5 6.01401C5 6.56601 5.448 7.01401 6 7.01401C6.552 7.01401 7 6.56601 7 6.01401C7 6.00901 7 6.00401 7 5.99901V6.00001V5.00001H13V6.00001C13 6.00401 13 6.00901 13 6.01401C13 6.56601 13.448 7.01401 14 7.01401C14.552 7.01401 15 6.56601 15 6.01401C15 6.00901 15 6.00401 15 5.99901V6.00001V5.00001H17C17.571 5.00001 18 5.42901 18 6.00001V9.00001H2V6.00001C2 5.42901 2.429 5.00001 3 5.00001ZM2 11H18V20C18 20.571 17.571 21 17 21H3C2.429 21 2 20.571 2 20V11Z" fill="#8A94A6"/>
</svg>
