<svg width="16" height="12" viewBox="0 0 16 12" fill="none" xmlns="http://www.w3.org/2000/svg">
<path d="M2.66675 0C1.57008 0 0.666748 0.903333 0.666748 2V10C0.666748 11.0967 1.57008 12 2.66675 12H13.3334C14.4301 12 15.3334 11.0967 15.3334 10V2C15.3334 0.903333 14.4301 0 13.3334 0H2.66675ZM2.66675 1.33333H13.3334C13.5961 1.33333 13.8154 1.48667 13.9247 1.706L8.00008 5.85333L2.07541 1.706C2.18408 1.48733 2.40408 1.33333 2.66675 1.33333ZM2.00008 3.28L7.61741 7.212C7.84741 7.37333 8.15342 7.37333 8.38275 7.212L14.0001 3.28V10C14.0001 10.37 13.7034 10.6667 13.3334 10.6667H2.66675C2.29675 10.6667 2.00008 10.37 2.00008 10V3.28Z" fill="#F58E0A"/>
</svg>
