<svg width="24" height="24" viewBox="0 0 24 24" fill="none" xmlns="http://www.w3.org/2000/svg">
<path d="M11.9841 0.985985C11.4381 0.994985 11.0001 1.43899 11.0001 1.98599C11.0001 1.99099 11.0001 1.99599 11.0001 1.99999V1.99899V5.99899C11.0001 6.00299 11.0001 6.00799 11.0001 6.01299C11.0001 6.56499 11.4481 7.01299 12.0001 7.01299C12.5521 7.01299 13.0001 6.56499 13.0001 6.01299C13.0001 6.00799 13.0001 6.00299 13.0001 5.99799V5.99899V1.99899C13.0001 1.99499 13.0001 1.98999 13.0001 1.98499C13.0001 1.43299 12.5521 0.984985 12.0001 0.984985C11.9951 0.984985 11.9891 0.984985 11.9841 0.984985H11.9851L11.9841 0.985985ZM4.92008 3.91999C4.36808 3.91999 3.92008 4.36799 3.92008 4.91999C3.92008 5.20099 4.03608 5.45499 4.22208 5.63599L7.05208 8.46598C7.23408 8.65598 7.49008 8.77298 7.77308 8.77298C8.32508 8.77298 8.77308 8.32499 8.77308 7.77298C8.77308 7.48998 8.65508 7.23399 8.46608 7.05199L5.63608 4.22199C5.45408 4.03499 5.20008 3.91899 4.91908 3.91899L4.92008 3.91999ZM19.0511 3.91999C18.7811 3.92799 18.5391 4.04299 18.3641 4.22299L15.5341 7.05299C15.3441 7.23499 15.2271 7.49099 15.2271 7.77399C15.2271 8.32599 15.6751 8.77399 16.2271 8.77399C16.5101 8.77399 16.7661 8.65599 16.9481 8.46699L19.7781 5.63699C19.9651 5.45499 20.0811 5.20099 20.0811 4.91999C20.0811 4.36799 19.6331 3.91999 19.0811 3.91999C19.0711 3.91999 19.0601 3.91999 19.0501 3.91999H19.0521H19.0511ZM12.0001 9.99999C10.8951 9.99999 10.0001 10.895 10.0001 12C10.0001 13.105 10.8951 14 12.0001 14C13.1051 14 14.0001 13.105 14.0001 12C14.0001 10.895 13.1051 9.99999 12.0001 9.99999ZM2.00008 11C1.99608 11 1.99108 11 1.98608 11C1.43408 11 0.986084 11.448 0.986084 12C0.986084 12.552 1.43408 13 1.98608 13C1.99108 13 1.99608 13 2.00108 13H6.00008C6.00408 13 6.00908 13 6.01408 13C6.56608 13 7.01408 12.552 7.01408 12C7.01408 11.448 6.56608 11 6.01408 11C6.00908 11 6.00408 11 5.99908 11H2.00008ZM18.0001 11C17.9961 11 17.9911 11 17.9861 11C17.4341 11 16.9861 11.448 16.9861 12C16.9861 12.552 17.4341 13 17.9861 13C17.9911 13 17.9961 13 18.0011 13H22.0001C22.0041 13 22.0091 13 22.0141 13C22.5661 13 23.0141 12.552 23.0141 12C23.0141 11.448 22.5661 11 22.0141 11C22.0091 11 22.0041 11 21.9991 11H18.0001ZM7.74008 15.23C7.47008 15.238 7.22808 15.353 7.05308 15.533L4.22308 18.363C4.03308 18.545 3.91608 18.801 3.91608 19.084C3.91608 19.636 4.36408 20.084 4.91608 20.084C5.19908 20.084 5.45508 19.966 5.63708 19.777L8.46708 16.947C8.65408 16.765 8.77008 16.511 8.77008 16.23C8.77008 15.678 8.32208 15.23 7.77008 15.23C7.76008 15.23 7.74908 15.23 7.73908 15.23H7.74108H7.74008ZM16.2301 15.23C15.6781 15.23 15.2301 15.678 15.2301 16.23C15.2301 16.511 15.3461 16.765 15.5321 16.946L18.3621 19.776C18.5441 19.966 18.8001 20.083 19.0831 20.083C19.6351 20.083 20.0831 19.635 20.0831 19.083C20.0831 18.8 19.9651 18.544 19.7761 18.362L16.9461 15.532C16.7641 15.345 16.5101 15.229 16.2291 15.229L16.2301 15.23ZM11.9841 16.986C11.4381 16.995 11.0001 17.439 11.0001 17.986C11.0001 17.991 11.0001 17.996 11.0001 18V17.999V21.999C11.0001 22.003 11.0001 22.008 11.0001 22.013C11.0001 22.565 11.4481 23.013 12.0001 23.013C12.5521 23.013 13.0001 22.565 13.0001 22.013C13.0001 22.008 13.0001 22.003 13.0001 21.998V21.999V17.999C13.0001 17.995 13.0001 17.99 13.0001 17.985C13.0001 17.433 12.5521 16.985 12.0001 16.985C11.9951 16.985 11.9891 16.985 11.9841 16.985H11.9851L11.9841 16.986Z" fill="#8A94A6"/>
</svg>
