<svg width="20" height="23" viewBox="0 0 20 23" fill="none" xmlns="http://www.w3.org/2000/svg">
<path d="M10.438 1.01001C10.09 0.985006 9.74098 0.991006 9.39698 1.02601C6.64498 1.30401 3.99698 3.50501 4.00098 7.00301V10.001H3.00098C1.35598 10.001 0.000976562 11.356 0.000976562 13.001V20.001C0.000976562 21.646 1.35598 23.001 3.00098 23.001H17.001C18.646 23.001 20.001 21.646 20.001 20.001V13.001C20.001 11.356 18.646 10.001 17.001 10.001H6.00098V6.99901C5.99798 4.46301 7.69898 3.20801 9.59898 3.01701C11.499 2.82601 13.417 3.71601 13.921 6.20101C14.187 7.50701 16.148 7.10901 15.882 5.80301C15.273 2.80401 12.873 1.18401 10.439 1.01201L10.438 1.01001ZM2.99998 12H17C17.571 12 18 12.429 18 13V20C18 20.571 17.571 21 17 21H2.99998C2.42898 21 1.99998 20.571 1.99998 20V13C1.99998 12.429 2.42898 12 2.99998 12Z" fill="#8A94A6"/>
</svg>
