<svg width="14" height="14" viewBox="0 0 14 14" fill="none" xmlns="http://www.w3.org/2000/svg">
<path d="M5.66546 0.324087C5.32079 0.325421 5.03812 0.587421 5.00412 0.922754V0.925421L4.62545 4.33275H1.66746C1.66479 4.33275 1.66146 4.33275 1.65812 4.33275C1.29012 4.33275 0.991455 4.63142 0.991455 4.99942C0.991455 5.36742 1.29012 5.66609 1.65812 5.66609C1.66146 5.66609 1.66479 5.66609 1.66812 5.66609H4.47745L4.18212 8.33275H1.66812C1.66545 8.33275 1.66212 8.33275 1.65879 8.33275C1.29079 8.33275 0.992122 8.63142 0.992122 8.99942C0.992122 9.36742 1.29079 9.66609 1.65879 9.66609C1.66212 9.66609 1.66545 9.66609 1.66879 9.66609H4.03412L3.67212 12.9254C3.66946 12.9474 3.66812 12.9734 3.66812 13.0001C3.66812 13.3681 3.96679 13.6668 4.33479 13.6668C4.67679 13.6668 4.95879 13.4088 4.99746 13.0768V13.0734L5.37612 9.66609H8.03345L7.67146 12.9254C7.66879 12.9474 7.66746 12.9734 7.66746 13.0001C7.66746 13.3681 7.96612 13.6668 8.33412 13.6668C8.67612 13.6668 8.95812 13.4088 8.99679 13.0768V13.0734L9.37546 9.66609H12.3335C12.3361 9.66609 12.3395 9.66609 12.3428 9.66609C12.7108 9.66609 13.0095 9.36742 13.0095 8.99942C13.0095 8.63142 12.7108 8.33275 12.3428 8.33275C12.3395 8.33275 12.3361 8.33275 12.3328 8.33275H9.52212L9.81879 5.66609H12.3328C12.3355 5.66609 12.3388 5.66609 12.3421 5.66609C12.7101 5.66609 13.0088 5.36742 13.0088 4.99942C13.0088 4.63142 12.7101 4.33275 12.3421 4.33275C12.3388 4.33275 12.3355 4.33275 12.3321 4.33275H9.96679L10.3288 1.07342C10.3321 1.04875 10.3341 1.01942 10.3341 0.990087C10.3341 0.622087 10.0355 0.323421 9.66746 0.323421C9.66679 0.323421 9.66546 0.323421 9.66479 0.323421C9.32012 0.324754 9.03746 0.586754 9.00346 0.922087V0.924754L8.62479 4.33209H5.96746L6.32946 1.07275C6.33279 1.04809 6.33479 1.01875 6.33479 0.989421C6.33479 0.621421 6.03612 0.322754 5.66812 0.322754C5.66746 0.322754 5.66612 0.322754 5.66546 0.322754V0.324087ZM5.81946 5.66675H8.47679L8.18146 8.33342H5.52279L5.81946 5.66675Z" fill="#702EE6"/>
</svg>
