<svg width="16" height="16" viewBox="0 0 16 16" fill="none" xmlns="http://www.w3.org/2000/svg">
<path d="M1.98998 0.990014C1.43799 0.990014 0.989985 1.43801 0.989985 1.99001C0.989985 2.27101 1.10599 2.52501 1.29199 2.70601L6.58499 7.99901L1.29199 13.292C1.10199 13.474 0.984985 13.73 0.984985 14.013C0.984985 14.565 1.43299 15.013 1.98499 15.013C2.26799 15.013 2.52399 14.895 2.70599 14.706L7.99898 9.41301L13.292 14.706C13.474 14.896 13.73 15.013 14.013 15.013C14.565 15.013 15.013 14.565 15.013 14.013C15.013 13.73 14.895 13.474 14.706 13.292L9.41298 7.99901L14.706 2.70601C14.893 2.52401 15.009 2.27001 15.009 1.98901C15.009 1.43701 14.561 0.989014 14.009 0.989014C13.999 0.989014 13.988 0.989014 13.978 0.989014H13.979C13.709 0.997014 13.467 1.11201 13.292 1.29201L7.99898 6.58501L2.70599 1.29201C2.52399 1.10501 2.26999 0.989014 1.98899 0.989014L1.98998 0.990014Z" fill="white"/>
</svg>
