<svg width="24" height="24" viewBox="0 0 24 24" fill="none" xmlns="http://www.w3.org/2000/svg">
<path d="M12 0C5.38443 0 0 5.38443 0 12C0 18.6156 5.38443 24 12 24C18.6156 24 24 18.6156 24 12C24 5.38443 18.6156 0 12 0ZM12 2C17.5347 2 22 6.46531 22 12C22 17.5347 17.5347 22 12 22C6.46531 22 2 17.5347 2 12C2 6.46531 6.46531 2 12 2ZM12.1816 7C11.1076 7 10.3071 7.34918 9.78125 8.04883C9.25986 8.74847 9 9.79794 9 11.1973V12.8828C9.01337 14.2419 9.2861 15.2696 9.81641 15.9648C10.3512 16.6555 11.1436 17 12.1953 17C13.2648 17 14.0606 16.646 14.582 15.9375C15.1078 15.2245 15.3711 14.1688 15.3711 12.7695V11.084C15.3578 9.72482 15.0863 8.70526 14.5605 8.02344C14.0391 7.34162 13.2467 7 12.1816 7ZM12.1816 8.30273C12.7253 8.30273 13.1215 8.5175 13.3711 8.94531C13.6206 9.36866 13.7461 10.0377 13.7461 10.9512V13.1504C13.7327 14.0283 13.6012 14.6735 13.3516 15.0879C13.102 15.4979 12.7167 15.7031 12.1953 15.7031C11.6516 15.7031 11.252 15.4808 10.998 15.0352C10.744 14.5895 10.6172 13.9111 10.6172 13.002V10.7969C10.6306 9.94125 10.7622 9.31318 11.0117 8.91211C11.2613 8.50659 11.6513 8.30273 12.1816 8.30273Z" fill="#8A94A6"/>
</svg>
