<svg width="20" height="20" viewBox="0 0 20 20" fill="none" xmlns="http://www.w3.org/2000/svg">
<path d="M3 0C1.355 0 0 1.355 0 3V17C0 18.645 1.355 20 3 20H17C18.645 20 20 18.645 20 17V6C20 5.735 19.895 5.48 19.707 5.293L14.707 0.293C14.519 0.105 14.265 0 14 0H3ZM3 2H4V6C4 6.552 4.448 7 5 7H13C14.352 7.019 14.352 4.981 13 5H6V2H13.586L18 6.414V17C18 17.564 17.564 18 17 18H16V11C16 10.448 15.552 10 15 10H5C4.448 10 4 10.448 4 11V18H3C2.436 18 2 17.564 2 17V3C2 2.436 2.436 2 3 2ZM6 12H14V18H6V12Z" fill="white"/>
</svg>
